# Converted from the official Rethink Robotics Baxter DAE
v 0.0477758 0.05271863 0.2397341
v 0.106108 0.05068171 0.5076907
v 0.09524476 0.05106103 0.5128911
v 0.1273869 0.01560759 0.4549651
v 0.1254568 0.01000535 0.455
v 0.1274954 0.003386259 0.4549651
v 0.1255 0 0.455
v 0.1254568 -0.01000517 0.455
v 0.1272188 -0.02239489 0.4549651
v 0.127387 -0.01560723 0.4549651
v 0.1274954 -0.003385663 0.4549651
v 0.1274999 0 0.4549651
v 0.12573 0.04401504 0.507013
v 0.12573 0.04401504 0.33
v 0.1200622 0.04968291 0.5070643
v 0.1257305 0.04401469 0.152987
v 0.1201263 0.04961884 0.1529363
v 0.12573 0.04401504 0.1705294
v 0.1164218 0.05332326 0.1529031
v 0.1164218 0.05332326 0.5070968
v 0.1273477 -1.34738e-05 0.546352
v 0.1269142 -1.24692e-05 0.5470008
v 0.1269013 -0.005616486 0.5469072
v 0.1274988 -1.45461e-05 0.5456569
v 0.1273477 -1.34738e-05 0.546352
v 0.1273348 -0.005595326 0.5462589
v 0.1274871 -0.005568683 0.5454941
v 0.1272372 -0.01549422 0.5455018
v 0.1273901 -0.0154016 0.5447441
v 0.1267247 -0.01952433 0.5454407
v 0.1270852 -0.02288228 0.5441905
v 0.1268615 -0.009705126 0.5465939
v 0.1268044 -0.01556813 0.5461446
v 0.1263478 -0.03234553 0.5413032
v 0.1267657 -0.0322439 0.5406585
v 0.1264902 -0.02848082 0.5430868
v 0.1269445 -0.02758824 0.5427997
v 0.1265155 -0.02779257 0.5434045
v 0.1266542 -0.02302151 0.5448186
v 0.1263406 -0.0325452 0.541211
v 0.1262543 -0.03456097 0.5398939
v 0.1266772 -0.03420579 0.5393815
v 0.126209 -0.03551816 0.5390121
v 0.1265351 -0.03702729 0.5367931
v 0.1261162 -0.03748083 0.5372045
v 0.1260868 -0.03805512 0.5364413
v 0.1264629 -0.03833544 0.5350622
v 0.126047 -0.03883302 0.5354077
v 0.126354 -0.04016709 0.5315606
v 0.1259889 -0.03988075 0.5333974
v 0.1259427 -0.04071497 0.5317965
v 0.1262989 -0.04103809 0.5291069
v 0.1259029 -0.04137986 0.5299164
v 0.1258895 -0.04160249 0.5292871
v 0.1262196 -0.04222846 0.5239463
v 0.1258394 -0.04238921 0.5258656
v 0.1258127 -0.04280692 0.524049
v 0.1257581 -0.0436117 0.5171509
v 0.1261636 -0.04302901 0.5171046
v 0.1257565 -0.04363447 0.5166201
v 0.1261366 -0.04340457 0.5083762
v 0.1257316 -0.04398781 0.5083891
v 0.127241 -0.02264553 0.5434629
v 0.1272397 -0.02270931 0.5434517
v 0.1271011 -0.02733677 0.54209
v 0.1269259 -0.03187733 0.5400131
v 0.1268396 -0.03377616 0.5387843
v 0.1267022 -0.03648436 0.5363162
v 0.126632 -0.03774231 0.5346627
v 0.1265261 -0.03951764 0.5312891
v 0.1264719 -0.04037052 0.5288997
v 0.126394 -0.04154551 0.5238286
v 0.1263388 -0.04234153 0.5170517
v 0.1261367 -0.04340434 0.5083762
v 0.1263124 -0.04271662 0.5083615
v 0.1257299 -0.04401522 0.5070133
v 0.1257299 -0.04401522 0.5070133
v 0.1261183 -0.04346746 0.5070076
v 0.1261349 -0.04343205 0.1529927
v 0.1261288 -0.04343032 0.5070072
v 0.1257299 -0.04401522 0.1529867
v 0.1261288 -0.04343032 0.5070072
v 0.1261349 -0.04343199 0.1529927
v 0.126305 -0.04280745 0.1529991
v 0.126305 -0.04280745 0.5070009
v 0.1164218 -0.05332326 0.5070968
v 0.1164218 -0.05332326 0.1529031
v 0.1201276 -0.04961746 0.5070638
v 0.1200622 -0.04968303 0.1529356
v 0.1257299 -0.04401522 0.1529867
v 0.1164755 -0.0528658 0.5172603
v 0.1164585 -0.05301302 0.515807
v 0.1164761 -0.05286037 0.5173134
v 0.1165506 -0.05221384 0.5236951
v 0.1166177 -0.05161637 0.5270658
v 0.1166397 -0.05141174 0.5278232
v 0.1166422 -0.05138897 0.5279075
v 0.1167758 -0.05014759 0.5325035
v 0.1167947 -0.04995822 0.5329462
v 0.1167985 -0.0499199 0.5330359
v 0.116976 -0.04814738 0.5371808
v 0.1170111 -0.04775929 0.5377839
v 0.1170164 -0.04770117 0.5378741
v 0.1172167 -0.04548811 0.5413128
v 0.1172776 -0.04472947 0.5421391
v 0.1172842 -0.0446456 0.5422303
v 0.1174432 -0.04266554 0.5443866
v 0.1175652 -0.04086917 0.5457682
v 0.1179163 -0.03515928 0.5494252
v 0.1178529 -0.03626704 0.5488094
v 0.1178428 -0.03644317 0.5487115
v 0.1177191 -0.03860461 0.5475099
v 0.1175736 -0.04074549 0.5458633
v 0.1181961 -0.0290023 0.5518225
v 0.118091 -0.03131598 0.5509217
v 0.1180806 -0.03154522 0.5508324
v 0.1184346 -0.02128243 0.5536511
v 0.1184229 -0.0217778 0.5535662
v 0.1186084 -0.0106765 0.5548784
v 0.118468 -0.01986354 0.5538942
v 0.1184425 -0.02094525 0.5537089
v 0.1186201 -0.009915709 0.5549598
v 0.118615 -0.01024836 0.5549242
v 0.1218037 -4.78843e-06 0.5521115
v 0.1186634 2.78693e-07 0.5552518
v 0.1260284 0.03918194 0.5348575
v 0.1259894 0.03987199 0.5333979
v 0.1170188 0.04766696 0.5378583
v 0.1186196 0.009977579 0.5549565
v 0.1184391 0.02093923 0.5536785
v 0.1184653 0.01998966 0.5538741
v 0.1267636 0.01799887 0.545803
v 0.1186088 0.01067703 0.5548809
v 0.1268724 0.009711086 0.5466855
v 0.1186155 0.01025003 0.5549271
v 0.126877 0.009359657 0.5467229
v 0.1269142 1.3602e-05 0.5470006
v 0.1267395 0.01925432 0.5455947
v 0.1184298 0.02127408 0.5536096
v 0.1267325 0.01954036 0.5455294
v 0.1265925 0.02529829 0.5442162
v 0.1264913 0.02850133 0.5431262
v 0.1180949 0.03134191 0.5509753
v 0.1182876 0.02643662 0.5525463
v 0.1263476 0.03233814 0.5412859
v 0.1179067 0.03533756 0.5493386
v 0.1264842 0.02872651 0.5430495
v 0.1180548 0.03236073 0.5506489
v 0.1180856 0.03157621 0.5509002
v 0.1262084 0.03555005 0.5390492
v 0.1175746 0.04076719 0.5458962
v 0.1262257 0.03519278 0.5394098
v 0.1176481 0.03972965 0.5467581
v 0.1263298 0.03280693 0.5410569
v 0.1178422 0.03643304 0.548695
v 0.1178525 0.03625935 0.548797
v 0.1171391 0.04638075 0.540099
v 0.1172792 0.0446887 0.5421093
v 0.1260862 0.03807389 0.536458
v 0.1260915 0.03797394 0.5366024
v 0.1172858 0.04460895 0.542204
v 0.1174018 0.04320752 0.5438689
v 0.1175662 0.04088675 0.5457968
v 0.1258586 0.0420984 0.5274844
v 0.1168019 0.04987382 0.5329171
v 0.1259036 0.0413661 0.529914
v 0.1168054 0.04984003 0.5330089
v 0.1259202 0.04109752 0.5308053
v 0.1169182 0.04874372 0.5359826
v 0.1170138 0.04772043 0.5377652
v 0.1257838 0.04323816 0.5210359
v 0.1166472 0.05133837 0.5278108
v 0.1258398 0.04238379 0.5258694
v 0.1166492 0.05132073 0.5278966
v 0.1167054 0.05081152 0.5303738
v 0.1257371 0.04391056 0.5114219
v 0.116482 0.0528078 0.517256
v 0.1257623 0.04354739 0.5166144
v 0.1164826 0.05280309 0.5173093
v 0.1165423 0.05228608 0.5231992
v 0.1257316 0.04398775 0.5083891
v 0.1164439 0.05313694 0.5135065
v 0.1273477 7.36132e-06 0.5463517
v 0.1273103 0.009321093 0.5460757
v 0.1261422 0.04332733 0.5114024
v 0.1261366 0.04340451 0.5083763
v 0.1263124 0.04271644 0.5083615
v 0.1261899 0.04265683 0.5209628
v 0.1262668 0.04152721 0.5273354
v 0.1263307 0.04054182 0.5305932
v 0.1264435 0.03867375 0.534531
v 0.1265093 0.03750383 0.5362138
v 0.1266478 0.03481817 0.5389141
v 0.1267547 0.03249943 0.5405088
v 0.1269125 0.02850562 0.5424521
v 0.1270227 0.02513152 0.5435969
v 0.1263177 0.04263937 0.5113801
v 0.1263648 0.04197084 0.5208792
v 0.1264405 0.04085206 0.5271645
v 0.1265031 0.03988385 0.5303493
v 0.1266133 0.03806871 0.5341538
v 0.1266772 0.03694206 0.5357636
v 0.1268113 0.03436583 0.5383369
v 0.126915 0.03212547 0.5398684
v 0.1270697 0.02823412 0.5417515
v 0.127178 0.02492511 0.5428691
v 0.1271716 0.0191518 0.5449572
v 0.127196 0.01790684 0.5451633
v 0.1272349 0.02264374 0.5433862
v 0.1273251 0.01902389 0.5442065
v 0.1273493 0.01779174 0.5444098
v 0.1274628 0.009272575 0.5453124
v 0.1274999 0 0.5455864
v 0.1271911 0.02447926 0.5098451
v 0.1274999 0 0.5106475
v 0.1274852 0.005951344 0.5105985
v 0.1272107 0.02323818 0.5098956
v 0.1272202 0.02264487 0.5099197
v 0.1273151 -0.01951569 0.5101299
v 0.1274999 -1.46545e-05 0.5455866
v 0.1266614 -0.03722929 0.5088709
v 0.1272088 -0.02239334 0.5099254
v 0.1271996 -0.02264302 0.5099076
v 0.1274954 -0.003385663 0.4900349
v 0.1274999 0 0.4900349
v 0.127387 -0.01560723 0.4900349
v 0.1272188 -0.02239489 0.4900349
v 0.1266081 -0.03815919 0.4560621
v 0.1265411 -0.03927552 0.4573182
v 0.1263105 -0.0427441 0.1529996
v 0.1271634 -0.02541053 0.1172745
v 0.1270841 -0.02782595 0.4549651
v 0.126778 -0.03503614 0.4549651
v 0.1266911 -0.03669106 0.4552474
v 0.1270601 -0.02850174 0.1183549
v 0.1267369 -0.03583472 0.1356773
v 0.126906 -0.03233116 0.1202554
v 0.1263791 -0.04176759 0.1375864
v 0.1264603 -0.04055434 0.1317226
v 0.1265459 -0.03919994 0.1279799
v 0.1266636 -0.03718984 0.1245573
v 0.1268028 -0.03454136 0.1218054
v 0.1263233 -0.04256618 0.1467061
v 0.1265015 -0.03991353 0.4588735
v 0.1264937 -0.04003489 0.4599692
v 0.1263105 -0.0427441 0.5070003
v 0.1264937 -0.04003489 0.4850307
v 0.1265115 -0.03975337 0.4866859
v 0.1265617 -0.03894114 0.4881544
v 0.1266354 -0.03768855 0.4892722
v 0.126721 -0.03613573 0.4899123
v 0.1270841 -0.02782595 0.4900349
v 0.126778 -0.03503614 0.4900349
v 0.1273593 -0.01724731 0.115508
v 0.1274669 -0.008785724 0.1146588
v 0.1274999 0 0.2234269
v 0.1274999 -1.46544e-05 0.1144134
v 0.1274999 0 0.31993
v 0.1272411 -0.0223937 0.1165585
v 0.1273128 -0.01961594 0.1158993
v 0.1261478 -0.04325401 0.1466749
v 0.1273145 -0.00883001 0.1138952
v 0.1273477 -1.34737e-05 0.1136479
v 0.1274988 -1.4546e-05 0.1143431
v 0.1273477 -1.34737e-05 0.1136479
v 0.1268811 -0.008865177 0.1132478
v 0.1269142 -1.24692e-05 0.1129992
v 0.1258412 -0.04236263 0.1341379
v 0.1262871 -0.04122495 0.1315293
v 0.1262044 -0.04245239 0.1374862
v 0.1257424 -0.04383718 0.1466476
v 0.125762 -0.04355359 0.1433879
v 0.1257979 -0.0430324 0.1373988
v 0.125878 -0.04179221 0.131361
v 0.125905 -0.04133927 0.1300984
v 0.1263744 -0.03984117 0.1276847
v 0.126078 -0.03824055 0.1237466
v 0.1264953 -0.03776168 0.1241224
v 0.1259883 -0.03989863 0.1265978
v 0.1259621 -0.04038161 0.1274284
v 0.1260867 -0.03806132 0.1235584
v 0.1262082 -0.03556352 0.1209357
v 0.1266391 -0.03500062 0.1212347
v 0.1262171 -0.03538125 0.1207443
v 0.1263207 -0.03302496 0.1190754
v 0.1267454 -0.0327118 0.1196197
v 0.1263473 -0.03232967 0.1187272
v 0.1269026 -0.02877926 0.1176573
v 0.1264744 -0.02900528 0.1170622
v 0.1264909 -0.02849698 0.1168832
v 0.1270079 -0.02562516 0.1165497
v 0.1265779 -0.02579879 0.1159329
v 0.1267273 -0.019858 0.1145138
v 0.1271592 -0.01975029 0.1151501
v 0.1267334 -0.01954227 0.1144614
v 0.1272062 -0.01735687 0.1147534
v 0.1267737 -0.01744443 0.1141129
v 0.1268705 -0.009710371 0.113333
v 0.1164438 -0.05313771 0.1465116
v 0.1218046 -4.78984e-06 0.1078894
v 0.1186634 -1.53493e-07 0.1047481
v 0.1186195 -0.009981036 0.1050443
v 0.1186153 -0.01024895 0.1050732
v 0.1186088 -0.01067674 0.1051194
v 0.1184651 -0.01999288 0.1061264
v 0.118439 -0.02093905 0.1063213
v 0.1184298 -0.02127361 0.1063902
v 0.1182876 -0.02643752 0.107454
v 0.118095 -0.03134119 0.1090243
v 0.1180858 -0.03157508 0.1090992
v 0.118055 -0.03235882 0.1093502
v 0.1179068 -0.03533875 0.1106624
v 0.1178525 -0.03625863 0.1112028
v 0.1178423 -0.03643208 0.1113047
v 0.117648 -0.03972929 0.113242
v 0.1175745 -0.04076713 0.1141042
v 0.1175661 -0.04088687 0.1142038
v 0.1174017 -0.04321074 0.1161343
v 0.1172858 -0.04460936 0.1177965
v 0.1172792 -0.04468905 0.1178913
v 0.1171388 -0.04638409 0.1199058
v 0.1170188 -0.0476672 0.1221421
v 0.1170138 -0.04772061 0.1222352
v 0.1169178 -0.04874694 0.1240242
v 0.1168053 -0.04984021 0.1269917
v 0.1168019 -0.04987394 0.1270833
v 0.1167052 -0.05081415 0.129635
v 0.1166491 -0.05132097 0.1321039
v 0.1166472 -0.05133855 0.1321895
v 0.1165422 -0.05228817 0.1368147
v 0.1164826 -0.05280297 0.1426911
v 0.116482 -0.05280762 0.1427441
v 0.1257464 0.04380595 0.1460185
v 0.1164585 0.05301308 0.1441931
v 0.1164755 0.05286586 0.1427395
v 0.1164761 0.05286043 0.1426863
v 0.125764 0.04356056 0.1433869
v 0.1165506 0.05221384 0.136305
v 0.1258071 0.04295754 0.1369215
v 0.1166177 0.05161643 0.1329343
v 0.1258444 0.04239755 0.13413
v 0.1166397 0.05141168 0.1321765
v 0.1259139 0.04129093 0.130114
v 0.1167947 0.0499581 0.1270533
v 0.1258705 0.04200482 0.1321719
v 0.1167758 0.05014717 0.1274953
v 0.1166422 0.05138885 0.1320919
v 0.125995 0.03992056 0.1265833
v 0.1170111 0.04775893 0.1222157
v 0.1259733 0.04031491 0.1273
v 0.116976 0.0481472 0.122819
v 0.1167985 0.04991978 0.1269634
v 0.126097 0.03799837 0.1236063
v 0.1172776 0.04472875 0.1178606
v 0.1260549 0.03883785 0.124615
v 0.1172166 0.04548877 0.1186882
v 0.1170164 0.047701 0.1221256
v 0.1262165 0.03555274 0.1209563
v 0.1175653 0.04086887 0.1142314
v 0.1261819 0.03630656 0.1215734
v 0.1174432 0.04266524 0.1156131
v 0.1172842 0.04464507 0.1177694
v 0.1263551 0.03230649 0.1187642
v 0.1178427 0.03644412 0.1112886
v 0.1262758 0.03426206 0.1198996
v 0.1177193 0.03860276 0.1124885
v 0.1175736 0.04074555 0.1141366
v 0.126671 0.02254945 0.1150755
v 0.1181963 0.02899992 0.1081768
v 0.1265165 0.02796685 0.1166667
v 0.1180909 0.03131687 0.1090787
v 0.126498 0.02849465 0.1168887
v 0.1180804 0.03154641 0.1091681
v 0.1264241 0.03060704 0.1177775
v 0.1179162 0.03515934 0.1105745
v 0.1178528 0.03626787 0.1111907
v 0.1267324 0.01953154 0.1145214
v 0.1184346 0.02128297 0.106349
v 0.1184229 0.0217781 0.1064339
v 0.1268715 0.009709417 0.1133335
v 0.1186086 0.01067686 0.1051212
v 0.126787 0.01684671 0.1140285
v 0.1184682 0.01985794 0.1061048
v 0.1184425 0.02094566 0.1062912
v 0.1269142 1.3602e-05 0.1129994
v 0.1268829 0.008742928 0.1132394
v 0.1186203 0.009913384 0.1050394
v 0.126603 0.03589349 0.1220328
v 0.1261517 0.04322284 0.1460488
v 0.1261355 0.04343146 0.1529932
v 0.1263056 0.0428068 0.1529995
v 0.1257305 0.04401469 0.152987
v 0.1261355 0.04343152 0.1529932
v 0.1262138 0.04237776 0.137014
v 0.1262791 0.04143446 0.1323269
v 0.1263859 0.03977555 0.1275603
v 0.126471 0.03833961 0.1249603
v 0.1266993 0.0339151 0.1204195
v 0.1268513 0.03034877 0.1183566
v 0.1269456 0.02775907 0.1172704
v 0.127102 0.02750331 0.1179788
v 0.1272418 0.02274703 0.1165918
v 0.1271023 0.02241504 0.1157053
v 0.1270095 0.03003311 0.1190347
v 0.1268613 0.033495 0.1210256
v 0.1267679 0.03539687 0.1225668
v 0.1266401 0.03774571 0.1253595
v 0.1265571 0.03913557 0.1278602
v 0.1264525 0.04076027 0.1325046
v 0.1263884 0.04169338 0.13712
v 0.1263272 0.04253482 0.1460834
v 0.1272196 0.01676326 0.1146699
v 0.1272565 0.02224797 0.1164462
v 0.1273726 0.01665914 0.1154258
v 0.1274687 0.008662343 0.1146504
v 0.1273162 0.008707225 0.1138868
v 0.1274999 0 0.1144136
v 0.1273477 7.3617e-06 0.1136482
v 0.1263052 0.04280722 0.5070006
v 0.1263107 0.04274398 0.33
v 0.1261351 0.04343181 0.33
v 0.1261351 0.04343181 0.507007
v 0.12573 0.04401504 0.507013
v 0.1261351 0.04343187 0.507007
v 0.1261351 0.04343181 0.1705294
v 0.1263107 0.04274398 0.31993
v 0.1263107 0.04274398 0.2234269
v 0.1263107 0.04274398 0.1705294
v 0.1272256 0.02323848 0.31993
v 0.1272256 0.02323848 0.2234269
v 0.1268753 0.03308892 0.1348299
v 0.1263111 0.0427435 0.1530002
v 0.1266912 0.03669106 0.4897527
v 0.1263107 0.04274398 0.507
v 0.1267781 0.03503614 0.4900349
v 0.1270841 0.02782613 0.4900349
v 0.1271979 0.02323788 0.4900349
v 0.1266083 0.03815919 0.4889379
v 0.1265414 0.03927552 0.4876818
v 0.1265016 0.03991353 0.4861265
v 0.1265618 0.03894114 0.4568455
v 0.1266355 0.03768855 0.4557278
v 0.1263107 0.04274398 0.507
v 0.1264939 0.04003489 0.4850307
v 0.1264939 0.04003489 0.4599692
v 0.1264939 0.04003489 0.4599692
v 0.1265117 0.03975337 0.4583141
v 0.1267212 0.03613573 0.4550876
v 0.1267781 0.03503614 0.4549651
v 0.1270841 0.02782613 0.4549651
v 0.1271979 0.02323788 0.4549651
v 0.1273869 0.01560759 0.4900349
v 0.1274954 0.003386259 0.4900349
v 0.1266372 0.03961932 0.4869134
v 0.1266372 0.03853553 0.4885355
v 0.1266372 0.03999996 0.485
v 0.1266372 0.03691339 0.4896194
v 0.1266372 0.0349999 0.49
v 0.1266372 -0.03999996 0.485
v 0.1266372 0.03999996 0.46
v 0.1266372 -0.03999996 0.46
v 0.1266372 -0.0349999 0.455
v 0.1266372 -0.03691339 0.4896194
v 0.1266372 -0.03961932 0.4869134
v 0.1266372 -0.0349999 0.49
v 0.1266372 -0.03853553 0.4564645
v 0.1266372 -0.03691339 0.4553806
v 0.1266372 0.03853553 0.4564645
v 0.1266372 0.03961932 0.4580866
v 0.1266372 0.03691339 0.4553806
v 0.1266372 0.0349999 0.455
vn -0.03489673 -0.9993909 -5.10713e-07
vn -0.03489673 -0.9993909 -5.10713e-07
vn -0.03489673 -0.9993909 -5.10713e-07
vn 0.7148656 0.01190221 0.6991485
vn 0.01754814 0.000152593 0.9998169
vn 0.7140721 0.003662168 0.7000336
vn 0.01739555 0 0.9998474
vn 0.01779228 -9.15555e-05 0.9998169
vn 0.7134007 -0.01718187 0.7004914
vn 0.7151097 -0.01248204 0.6988739
vn 0.7140111 -0.003692686 0.7000946
vn 0.7135227 0 0.7006134
vn 0.7071139 0.7070528 0.006591975
vn 0.7672353 0.6413159 0
vn 0.7071139 0.7070528 0.006591975
vn 0.7071139 0.7070223 -0.00979644
vn 0.7068697 0.7072359 -0.01058989
vn 0.7672353 0.6413159 0
vn 0.3967711 0.9177832 -0.01556444
vn 0.3970153 0.9177221 0.01248204
vn 0.8314158 -0.01116973 0.5554979
vn 0.750267 -0.00766009 0.6610614
vn 0.7712943 -0.03161716 0.63567
vn 0.9932554 -0.004303097 0.1157262
vn 0.9771416 -0.005798459 0.2124088
vn 0.9223914 -0.02404856 0.3854793
vn 0.9949949 -0.01138335 0.09897148
vn 0.9212928 -0.06253242 0.3837702
vn 0.9946287 -0.02728354 0.09970396
vn 0.7743766 -0.1259194 0.620014
vn 0.9201025 -0.1115452 0.3754082
vn 0.7746208 -0.05606245 0.6298715
vn 0.7723929 -0.09076201 0.6285898
vn 0.7719047 -0.2905057 0.5654164
vn 0.9161351 -0.2217475 0.333842
vn 0.7698599 -0.2889187 0.5690176
vn 0.9179052 -0.1664479 0.3601489
vn 0.7691885 -0.2481154 0.5888241
vn 0.7719047 -0.164159 0.614124
vn 0.7679983 -0.3333842 0.5467696
vn 0.7643361 -0.4174627 0.491409
vn 0.9136021 -0.2754296 0.2989898
vn 0.7669912 -0.4518265 0.4555498
vn 0.9113438 -0.3249 0.2527238
vn 0.7671133 -0.4926298 0.4108402
vn 0.7671133 -0.5265359 0.3664357
vn 0.9097873 -0.3646656 0.1981261
vn 0.7635121 -0.5578479 0.3252357
vn 0.9091159 -0.3899044 0.1463667
vn 0.766686 -0.5770134 0.2813807
vn 0.7647023 -0.5984374 0.2388989
vn 0.9087496 -0.4048585 0.1010468
vn 0.7663808 -0.6099734 0.2013916
vn 0.7655568 -0.6213569 0.1666921
vn 0.9080783 -0.4142888 0.0612201
vn 0.7673879 -0.6270028 0.1339152
vn 0.7668997 -0.6337168 0.1011688
vn 0.7663198 -0.6407666 0.04617446
vn 0.9082614 -0.4173711 0.02826011
vn 0.7667165 -0.6414685 0.02520829
vn 0.8968169 -0.4411756 -0.03207492
vn 0.7668997 -0.6414685 0.01867729
vn 0.9946287 -0.03759878 0.09628587
vn 0.9940794 -0.04745626 0.09756767
vn 0.9931638 -0.06881922 0.09372234
vn 0.9922788 -0.08865624 0.08639788
vn 0.9913328 -0.1066011 0.07650989
vn 0.9903867 -0.1224402 0.0643025
vn 0.9896543 -0.1343424 0.0502029
vn 0.9882809 -0.1475875 0.03845328
vn 0.9878537 -0.1530198 0.02612382
vn 0.9874874 -0.1568651 0.01568651
vn 0.9874264 -0.1577196 0.007080256
vn 0.9501633 -0.3111972 -0.01657152
vn 0.9875485 -0.1572619 0.002502501
vn 0.7234107 -0.6903592 0.007110774
vn 0.8157598 -0.5782952 0.00640887
vn 0.9009369 -0.4338817 0.003814756
vn 0.9534898 -0.3013092 -0.00326544
vn 0.9629811 -0.2694784 -0.000518815
vn 0.8213447 -0.5703299 -0.007141292
vn 0.9622181 -0.272103 0.00527966
vn 0.9913328 -0.1313517 -0.000793481
vn 0.984344 -0.1760918 -0.001495361
vn 0.9832758 -0.1820429 0.003448545
vn 0.3965575 -0.9178442 0.01541179
vn 0.3971679 -0.9176306 -0.01260411
vn 0.7071139 -0.7070528 0.006591975
vn 0.7071139 -0.7070223 -0.009033441
vn 0.7071444 -0.7069613 -0.009186029
vn 0.4082461 -0.9086886 0.08725237
vn 0.4009522 -0.9139683 0.06213563
vn 0.4010437 -0.9121372 0.08447521
vn 0.3941161 -0.9112522 0.1193274
vn 0.3938719 -0.8984344 0.1940367
vn 0.396588 -0.8891873 0.2281258
vn 0.3977172 -0.8890957 0.2263863
vn 0.3921629 -0.872158 0.2923978
vn 0.3942686 -0.8509781 0.3469039
vn 0.3955504 -0.8512223 0.3447981
vn 0.3932615 -0.8179876 0.4197516
vn 0.3978393 -0.7824641 0.478988
vn 0.398236 -0.7828913 0.4779198
vn 0.3936582 -0.7380902 0.5478988
vn 0.3971374 -0.690756 0.604236
vn 0.396588 -0.6919767 0.6031678
vn 0.3914609 -0.6352123 0.6657308
vn 0.3977782 -0.576159 0.7139806
vn 0.3931699 -0.4066591 0.8246101
vn 0.3987548 -0.4633625 0.791345
vn 0.3986023 -0.4646138 0.7907041
vn 0.3952452 -0.5188757 0.7579577
vn 0.3993347 -0.5771355 0.712302
vn 0.3929258 -0.2873318 0.8735008
vn 0.398114 -0.3498337 0.8479873
vn 0.3976562 -0.3485519 0.8487198
vn 0.4020203 -0.1642811 0.9007538
vn 0.3988159 -0.1917478 0.8967254
vn 0.4038515 -0.1015045 0.9091464
vn 0.3773308 -0.1452071 0.9146092
vn 0.3976256 -0.1571093 0.9039583
vn 0.3978698 -0.06469923 0.9151281
vn 0.4060183 -0.1034272 0.9079562
vn 0.7070834 3.05185e-05 0.7071139
vn 0.3971068 6.1037e-05 0.9177526
vn 0.7646412 0.5669729 0.3062838
vn 0.7672048 0.5870846 0.2582171
vn 0.396527 0.8024842 0.4457839
vn 0.396527 0.06418043 0.9157384
vn 0.4035767 0.1932126 0.8942839
vn 0.3956419 0.1491134 0.9061861
vn 0.7714164 0.09820854 0.6286508
vn 0.4017456 0.1053804 0.9096347
vn 0.772454 0.07721179 0.6303293
vn 0.4028138 0.1043733 0.9092685
vn 0.7718436 0.049501 0.633839
vn 0.7513047 0.01681566 0.6597186
vn 0.770745 0.1388897 0.6217536
vn 0.4044313 0.2005371 0.8922697
vn 0.7711417 0.1593981 0.6163519
vn 0.7702566 0.1933347 0.607654
vn 0.7710807 0.2269356 0.5948973
vn 0.3944517 0.303476 0.867336
vn 0.3687247 0.2309946 0.9003571
vn 0.7715079 0.3036592 0.5590381
vn 0.3943602 0.4341563 0.8099002
vn 0.7701651 0.2639241 0.5806146
vn 0.3817865 0.3411054 0.858974
vn 0.385815 0.2952666 0.8740196
vn 0.7670828 0.4722434 0.4342173
vn 0.3874019 0.6028627 0.6974395
vn 0.7665029 0.432905 0.4743797
vn 0.3841975 0.5542467 0.7383343
vn 0.7688223 0.3447371 0.5385296
vn 0.4013184 0.4803003 0.77987
vn 0.4000366 0.4807276 0.7802667
vn 0.3830073 0.7743156 0.5036775
vn 0.4062319 0.7120274 0.5726798
vn 0.7647634 0.5424055 0.3476974
vn 0.7658925 0.5112766 0.3898129
vn 0.3982055 0.7125767 0.5775933
vn 0.3885617 0.666982 0.6357005
vn 0.3940244 0.6012452 0.6951506
vn 0.7651296 0.6286508 0.1390423
vn 0.4110538 0.8598895 0.3026216
vn 0.7656789 0.6196173 0.1725516
vn 0.4016541 0.8619037 0.3094577
vn 0.7659536 0.6061586 0.2141484
vn 0.3839533 0.8468582 0.3679311
vn 0.4053773 0.8009278 0.4406262
vn 0.765862 0.638844 0.07269507
vn 0.4118778 0.8937651 0.1774346
vn 0.7664113 0.6339915 0.103122
vn 0.4069948 0.8965423 0.1746879
vn 0.3933531 0.887875 0.2385021
vn 0.7667165 0.6413465 0.02783286
vn 0.4108096 0.9085055 0.07623523
vn 0.7672659 0.6399732 0.04101687
vn 0.4065065 0.9102451 0.07849359
vn 0.3938413 0.9114353 0.1188085
vn 0.7476425 0.6638997 0.01443523
vn 0.3953673 0.9173254 0.04635757
vn 0.9230324 0.0150761 0.3844112
vn 0.9221168 0.03408914 0.3853572
vn 0.9086581 0.417127 0.01684617
vn 0.9093601 0.4158757 0.008911371
vn 0.9932249 0.1160924 0.00238043
vn 0.9078341 0.4170049 0.043733
vn 0.9083224 0.409772 0.08359014
vn 0.9086276 0.3963134 0.1314432
vn 0.9094211 0.3722037 0.1853083
vn 0.9109775 0.3356426 0.2396008
vn 0.9126865 0.286874 0.290994
vn 0.9156774 0.2306588 0.3290811
vn 0.9179052 0.1785638 0.3542894
vn 0.9197974 0.1307107 0.3699148
vn 0.9887081 0.1497238 0.003845274
vn 0.988525 0.1506088 0.01010161
vn 0.9886776 0.1486556 0.01986753
vn 0.9888607 0.1452071 0.03241062
vn 0.9893491 0.1378521 0.04647964
vn 0.9900205 0.1266213 0.0615558
vn 0.9909055 0.1111484 0.07547223
vn 0.9920347 0.09198278 0.08578753
vn 0.9929807 0.07351905 0.09247106
vn 0.9937742 0.05533003 0.09640794
vn 0.9215064 0.09442424 0.3766595
vn 0.9220557 0.06683552 0.3811762
vn 0.9943846 0.04632705 0.09500408
vn 0.9944761 0.04055905 0.09656053
vn 0.9947508 0.02975553 0.09781181
vn 0.9948729 0.01538127 0.09988707
vn 0.9978027 0.004577755 0.06601148
vn 0.9995117 0.03106784 -0.000152593
vn 0.9999695 -0.002990782 0.000152593
vn 0.999939 0.008484125 0.00021363
vn 0.9998474 0.01596117 -0.000366222
vn 0.9998474 0.01660203 -3.05185e-05
vn 0.9997254 -0.02331614 -9.15555e-05
vn 0.9999695 -0.001617431 0.00527966
vn 0.9986877 -0.05078279 0.000671407
vn 0.9992981 -0.03680527 -0.000335704
vn 0.9993286 -0.03653061 0.000396741
vn 0.7142857 -0.003875792 -0.6998199
vn 0.7135838 6.1037e-05 -0.7005524
vn 0.7149571 -0.01144438 -0.6990265
vn 0.7130039 -0.01806694 -0.7009186
vn 0.9982604 -0.05883967 -6.1037e-05
vn 0.9980773 -0.06170839 -3.05185e-05
vn 0.9972839 -0.07354956 9.15555e-05
vn 0.9937132 -0.05710011 -0.09613329
vn 0.7148351 -0.02417063 0.6988739
vn 0.9013031 -0.04290902 0.4309824
vn 0.9984741 -0.05484175 -0.000152593
vn 0.9929197 -0.07513654 -0.09195226
vn 0.9986267 -0.05178987 0.000549333
vn 0.9920042 -0.09286779 -0.08505505
vn 0.9877011 -0.1557359 -0.01300084
vn 0.9879452 -0.1526536 -0.02502512
vn 0.9883419 -0.1464888 -0.04092532
vn 0.9891964 -0.1335185 -0.06030452
vn 0.9906613 -0.1133762 -0.07565534
vn 0.9877621 -0.1558275 -0.005462765
vn 0.9979248 -0.0640583 0
vn 0.9977111 -0.06735432 0
vn 0.9971923 -0.07446515 6.1037e-05
vn 0.9977111 -0.06723225 0
vn 0.9978942 -0.06451612 0.000366222
vn 0.9980773 -0.06189149 0.000793481
vn 0.998291 -0.05819875 0.001678466
vn 0.9984741 -0.05478072 0.001098632
vn 0.7153233 -0.02417063 -0.6983551
vn 0.898587 -0.04217654 -0.4367198
vn 0.9947203 -0.02905356 -0.09820854
vn 0.9949034 -0.01495403 -0.09949034
vn 1 9.15555e-05 6.1037e-05
vn 0.9999695 -0.002655088 -0.005340695
vn 0.9999695 -0.000244148 -9.15555e-05
vn 0.9944151 -0.04757833 -0.09408855
vn 0.9944456 -0.04199343 -0.09643846
vn 0.9082919 -0.4177679 -0.02075254
vn 0.9221168 -0.03265476 -0.3854793
vn 0.9771111 -0.009613275 -0.2124088
vn 0.9931638 -0.007019221 -0.1164281
vn 0.8312937 -0.01867729 -0.5554674
vn 0.7719962 -0.04666274 -0.6339
vn 0.7510911 -0.01193273 -0.6600543
vn 0.7671133 -0.6303293 -0.1192052
vn 0.9080477 -0.4071169 -0.09817802
vn 0.9077121 -0.416303 -0.05178987
vn 0.7664723 -0.6413465 -0.033845
vn 0.7671438 -0.6393933 -0.05102694
vn 0.7659536 -0.6371349 -0.08572649
vn 0.7655568 -0.6225166 -0.1622669
vn 0.7667471 -0.6093021 -0.2019715
vn 0.908414 -0.3877987 -0.1560411
vn 0.765923 -0.5263527 -0.3691214
vn 0.9091464 -0.3494675 -0.2265083
vn 0.7681509 -0.5640736 -0.3028352
vn 0.7656179 -0.5905026 -0.2550737
vn 0.7689749 -0.4814295 -0.4205451
vn 0.7665639 -0.480697 -0.4257332
vn 0.9122593 -0.2920926 -0.2871181
vn 0.7658315 -0.4411451 -0.4678182
vn 0.7689749 -0.3505966 -0.5345012
vn 0.9154943 -0.2345042 -0.3268227
vn 0.7715384 -0.3092135 -0.5558947
vn 0.9177526 -0.1826533 -0.3526108
vn 0.7702566 -0.2701193 -0.5776849
vn 0.7711722 -0.2334971 -0.5922117
vn 0.9196753 -0.135197 -0.368633
vn 0.7709281 -0.2008423 -0.6043885
vn 0.7714164 -0.1410871 -0.6204718
vn 0.9212318 -0.09689623 -0.3766595
vn 0.7718436 -0.1187475 -0.6245613
vn 0.9219947 -0.0655232 -0.3815424
vn 0.7714469 -0.09628587 -0.6289255
vn 0.7728202 -0.07327491 -0.6303293
vn 0.3953978 -0.9170812 -0.05075228
vn 0.7069308 -0.008362054 -0.7072054
vn 0.3968932 -0.000335704 -0.9178442
vn 0.3967406 -0.06714069 -0.9154332
vn 0.3990295 -0.1043733 -0.910947
vn 0.3982971 -0.103824 -0.9113438
vn 0.3960387 -0.151677 -0.9056063
vn 0.3985107 -0.194525 -0.8962676
vn 0.3971068 -0.19541 -0.8966948
vn 0.3940244 -0.2451857 -0.8857693
vn 0.3971679 -0.2945036 -0.8691977
vn 0.3980835 -0.2940153 -0.868923
vn 0.3949705 -0.3411359 -0.8529924
vn 0.3942686 -0.4350719 -0.8094424
vn 0.3976256 -0.4821009 -0.7806635
vn 0.3967101 -0.4817346 -0.7813349
vn 0.3905454 -0.5456099 -0.7414472
vn 0.3961608 -0.603412 -0.6920072
vn 0.396527 -0.6031373 -0.6920377
vn 0.3902097 -0.6634114 -0.6384167
vn 0.3961913 -0.7161169 -0.5746025
vn 0.3958556 -0.7160863 -0.5748466
vn 0.389996 -0.7659841 -0.511002
vn 0.398175 -0.8047426 -0.4402295
vn 0.3977782 -0.8047731 -0.4405347
vn 0.3904538 -0.8407239 -0.3750725
vn 0.3975951 -0.8655965 -0.3043306
vn 0.3973205 -0.8657186 -0.3043001
vn 0.3911557 -0.8881802 -0.2409436
vn 0.3986023 -0.9000519 -0.1760613
vn 0.3979919 -0.900296 -0.1761528
vn 0.3927122 -0.9109165 -0.126255
vn 0.3989074 -0.9138157 -0.07596057
vn 0.3982971 -0.9140904 -0.07593005
vn 0.7666555 0.6410413 -0.03561508
vn 0.3956419 0.9164403 -0.05966365
vn 0.4002808 0.9121677 -0.08761864
vn 0.3997619 0.9123508 -0.08798485
vn 0.7678152 0.6383252 -0.05453658
vn 0.3949095 0.911008 -0.1185644
vn 0.7667776 0.6361584 -0.08542126
vn 0.393292 0.8988006 -0.1935178
vn 0.7664418 0.6312143 -0.1188085
vn 0.395703 0.8894314 -0.2286751
vn 0.7674185 0.6099429 -0.1974852
vn 0.3973205 0.8501541 -0.3454695
vn 0.7644886 0.625782 -0.1546373
vn 0.3940244 0.8709067 -0.2935881
vn 0.397351 0.8892483 -0.2264778
vn 0.7667776 0.5711539 -0.2928556
vn 0.3955199 0.7828608 -0.4802393
vn 0.7645802 0.5962096 -0.2447584
vn 0.392407 0.8191473 -0.4183172
vn 0.3976256 0.8505203 -0.3442183
vn 0.7686697 0.5066072 -0.3904538
vn 0.3979614 0.6903592 -0.6041444
vn 0.7649465 0.5453658 -0.3425703
vn 0.3931699 0.7379681 -0.5484482
vn 0.3969542 0.7833796 -0.4781945
vn 0.7680898 0.4261299 -0.4779198
vn 0.3965575 0.5763726 -0.7144688
vn 0.7659536 0.4697409 -0.4388561
vn 0.3924375 0.6361584 -0.6642659
vn 0.3991821 0.6910611 -0.6024964
vn 0.770684 0.3431806 -0.5368816
vn 0.4001587 0.4625691 -0.7911008
vn 0.7678152 0.3874935 -0.5101779
vn 0.3943907 0.5192114 -0.7581713
vn 0.3979003 0.5773187 -0.7129734
vn 0.7717521 0.1644032 -0.614246
vn 0.3930479 0.2871487 -0.8735008
vn 0.7698294 0.2370373 -0.5925779
vn 0.3975646 0.3496811 -0.8482925
vn 0.7688223 0.2707297 -0.5792719
vn 0.3971374 0.3490707 -0.8487503
vn 0.7685476 0.3061311 -0.5617237
vn 0.3937803 0.4071169 -0.8240913
vn 0.4009522 0.4630268 -0.7904599
vn 0.7735221 0.1295511 -0.6203498
vn 0.4009522 0.1645253 -0.9011811
vn 0.3983581 0.192175 -0.8968474
vn 0.7729118 0.07061982 -0.6305124
vn 0.4027833 0.1027558 -0.9094821
vn 0.7718131 0.09970396 -0.6279794
vn 0.3952147 0.1348002 -0.9086276
vn 0.4011963 0.1638538 -0.9011811
vn 0.7513657 0.01532024 -0.6596576
vn 0.7720878 0.04507583 -0.6339
vn 0.396466 0.06393623 -0.9157994
vn 0.9116184 0.3114719 -0.2680441
vn 0.9082614 0.4177984 -0.02197331
vn 0.9648427 0.2627033 -0.002777159
vn 0.9843135 0.1762749 -0.001495361
vn 0.8213447 0.5703299 -0.007568538
vn 0.9534593 0.3014618 -0.003418028
vn 0.9080477 0.4156316 -0.05169832
vn 0.9082003 0.4075136 -0.0952177
vn 0.9086276 0.3899655 -0.149266
vn 0.9097568 0.3577685 -0.2104556
vn 0.9146397 0.2567827 -0.3122044
vn 0.9171118 0.2055116 -0.3415021
vn 0.9189428 0.1581774 -0.3611866
vn 0.9935606 0.06479078 -0.09262365
vn 0.9941099 0.05679494 -0.09216588
vn 0.9203162 0.1118503 -0.3747978
vn 0.9926145 0.08261358 -0.08859521
vn 0.9914548 0.1011688 -0.08206427
vn 0.9902646 0.1199682 -0.07034516
vn 0.9892575 0.1354411 -0.0549333
vn 0.9885861 0.1456038 -0.03787344
vn 0.9882199 0.1510971 -0.02356028
vn 0.9880368 0.1535081 -0.01245152
vn 0.9880062 0.1541795 -0.005554318
vn 0.9215674 0.06845301 -0.3820612
vn 0.9941405 0.04730367 -0.09714037
vn 0.9946593 0.03003019 -0.09860527
vn 0.9949034 0.01397746 -0.09970396
vn 0.9222694 0.03112888 -0.3852046
vn 0.9978027 0.004181027 -0.06588941
vn 0.9231239 0.01385539 -0.384228
vn 0.9843745 0.1759086 0
vn 0.9879452 0.1546068 0
vn 0.9095737 0.4155095 0
vn 0.9912106 0.1321146 0
vn 0.8212836 0.5704825 0
vn 0.9540086 0.2997223 0
vn 0.9095432 0.4155706 0.000122074
vn 0.9889828 0.1479537 -0.000122074
vn 0.9889828 0.1478621 0
vn 0.9890133 0.147679 0.000274667
vn 0.9995422 0.02929776 -0.000244148
vn 0.9995422 0.0293588 3.05185e-05
vn 0.9993591 0.0348826 0.006469905
vn 0.9973449 0.072573 0
vn 0.9984436 0.05520796 0.002624571
vn 0.9975585 0.06942957 6.1037e-05
vn 0.9032563 0.04223757 -0.4269539
vn 0.7155064 0.02584916 -0.6980804
vn 0.7128208 0.01745659 -0.7010712
vn 0.9981994 0.0595721 0.001312255
vn 0.9980163 0.0628376 0.00061037
vn 0.9978637 0.06518751 0.000274667
vn 0.9981079 0.061037 -0.000122074
vn 0.9983215 0.05761891 -0.000244148
vn 0.9977214 0.06746816 0
vn 0.9977214 0.06746816 0
vn 0.9977214 0.06746816 0
vn 0.9977111 0.06723225 0
vn 0.9979858 0.06332588 -6.1037e-05
vn 0.9985351 0.05368202 -0.000427259
vn 0.898587 0.04226809 0.4366893
vn 0.7148961 0.0242927 0.6987823
vn 0.7130039 0.01767021 0.7009186
vn 0.7148045 0.01211583 -0.6991791
vn 0.71395 0.003448545 -0.7001556
vn 1 0 0
vn 1 0 0
vn 0.8823512 0.4705649 0
vn 1 0 0
vn 1 0 0
vn 1 0 0
vn 0.8823512 0.4705649 0
vn 1 0 0
vn 1 0 0
vn 1 0 0
vn 1 0 0
vn 1 0 0
vn 1 0 0
vn 1 0 0
vn 1 0 0
vn 1 0 0
vn 1 0 0
vn 1 0 0
f 1//1 2//2 3//3
f 4//4 5//5 6//6
f 6//6 5//5 7//7
f 8//8 9//9 10//10
f 7//7 10//10 11//11
f 7//7 11//11 12//12
f 13//13 14//14 15//15
f 16//16 17//17 18//18
f 18//18 17//17 19//19
f 18//18 19//19 14//14
f 14//14 19//19 20//20
f 14//14 20//20 15//15
f 21//21 22//22 23//23
f 24//24 25//25 26//26
f 24//24 26//26 27//27
f 27//27 26//26 28//28
f 27//27 28//28 29//29
f 30//30 31//31 28//28
f 21//21 23//23 26//26
f 26//26 23//23 32//32
f 26//26 32//32 28//28
f 28//28 32//32 33//33
f 28//28 33//33 30//30
f 34//34 35//35 36//36
f 36//36 35//35 37//37
f 36//36 37//37 38//38
f 38//38 37//37 31//31
f 38//38 31//31 39//39
f 39//39 31//31 30//30
f 35//35 40//40 41//41
f 35//35 41//41 42//42
f 42//42 41//41 43//43
f 42//42 43//43 44//44
f 43//43 45//45 44//44
f 44//44 45//45 46//46
f 44//44 46//46 47//47
f 47//47 46//46 48//48
f 47//47 48//48 49//49
f 48//48 50//50 49//49
f 49//49 50//50 51//51
f 49//49 51//51 52//52
f 51//51 53//53 52//52
f 52//52 53//53 54//54
f 52//52 54//54 55//55
f 55//55 54//54 56//56
f 56//56 57//57 55//55
f 55//55 57//57 58//58
f 55//55 58//58 59//59
f 59//59 58//58 60//60
f 59//59 60//60 61//61
f 61//61 60//60 62//62
f 29//29 28//28 63//63
f 63//63 28//28 31//31
f 64//64 31//31 37//37
f 64//64 37//37 65//65
f 65//65 37//37 35//35
f 65//65 35//35 66//66
f 66//66 35//35 42//42
f 66//66 42//42 67//67
f 67//67 42//42 44//44
f 67//67 44//44 68//68
f 68//68 44//44 47//47
f 68//68 47//47 69//69
f 69//69 47//47 49//49
f 69//69 49//49 70//70
f 70//70 49//49 52//52
f 70//70 52//52 71//71
f 71//71 52//52 55//55
f 71//71 55//55 72//72
f 72//72 55//55 59//59
f 72//72 59//59 73//73
f 73//73 59//59 74//74
f 73//73 74//74 75//75
f 62//62 76//76 61//61
f 77//77 78//78 74//74
f 79//79 80//80 81//81
f 81//81 78//78 77//77
f 82//82 83//83 84//84
f 82//82 84//84 85//85
f 86//86 87//87 88//88
f 88//88 87//87 89//89
f 88//88 89//89 76//76
f 76//76 89//89 90//90
f 88//88 76//76 62//62
f 91//91 92//92 62//62
f 62//62 92//92 86//86
f 62//62 86//86 88//88
f 62//62 60//60 93//93
f 93//93 60//60 58//58
f 93//93 58//58 94//94
f 94//94 58//58 57//57
f 94//94 57//57 95//95
f 95//95 57//57 96//96
f 96//96 57//57 56//56
f 97//97 56//56 98//98
f 98//98 56//56 54//54
f 98//98 54//54 99//99
f 99//99 54//54 53//53
f 100//100 53//53 101//101
f 101//101 53//53 51//51
f 101//101 51//51 102//102
f 102//102 51//51 50//50
f 103//103 50//50 104//104
f 104//104 50//50 48//48
f 104//104 48//48 105//105
f 105//105 48//48 46//46
f 106//106 46//46 45//45
f 106//106 45//45 107//107
f 107//107 45//45 43//43
f 107//107 43//43 108//108
f 36//36 109//109 34//34
f 34//34 109//109 110//110
f 34//34 110//110 40//40
f 40//40 111//111 41//41
f 41//41 111//111 112//112
f 41//41 112//112 43//43
f 43//43 112//112 113//113
f 39//39 114//114 38//38
f 38//38 114//114 115//115
f 38//38 115//115 36//36
f 36//36 116//116 109//109
f 30//30 117//117 39//39
f 39//39 118//118 114//114
f 32//32 119//119 33//33
f 33//33 119//119 120//120
f 33//33 120//120 30//30
f 30//30 120//120 121//121
f 23//23 122//122 32//32
f 32//32 122//122 123//123
f 32//32 123//123 119//119
f 23//23 22//22 122//122
f 122//122 22//22 124//124
f 122//122 124//124 125//125
f 126//126 127//127 128//128
f 129//129 125//125 124//124
f 130//130 131//131 132//132
f 132//132 131//131 133//133
f 132//132 133//133 134//134
f 134//134 133//133 135//135
f 134//134 135//135 136//136
f 136//136 129//129 137//137
f 137//137 129//129 124//124
f 132//132 138//138 130//130
f 139//139 140//140 141//141
f 142//142 143//143 141//141
f 141//141 143//143 144//144
f 141//141 144//144 139//139
f 145//145 146//146 147//147
f 147//147 146//146 148//148
f 147//147 148//148 149//149
f 150//150 151//151 152//152
f 152//152 151//151 153//153
f 152//152 153//153 154//154
f 154//154 153//153 155//155
f 154//154 155//155 145//145
f 145//145 156//156 146//146
f 128//128 157//157 126//126
f 126//126 157//157 158//158
f 126//126 158//158 159//159
f 160//160 161//161 162//162
f 160//160 162//162 150//150
f 150//150 162//162 163//163
f 164//164 165//165 166//166
f 166//166 167//167 168//168
f 168//168 167//167 169//169
f 168//168 169//169 127//127
f 127//127 169//169 170//170
f 171//171 172//172 173//173
f 173//173 174//174 164//164
f 164//164 174//174 175//175
f 164//164 175//175 165//165
f 176//176 177//177 178//178
f 178//178 179//179 171//171
f 171//171 179//179 180//180
f 171//171 180//180 172//172
f 13//13 15//15 181//181
f 181//181 20//20 176//176
f 176//176 20//20 182//182
f 176//176 182//182 177//177
f 137//137 183//183 184//184
f 185//185 186//186 181//181
f 186//186 185//185 187//187
f 181//181 176//176 185//185
f 185//185 178//178 188//188
f 188//188 178//178 171//171
f 188//188 171//171 189//189
f 171//171 173//173 189//189
f 189//189 173//173 164//164
f 189//189 164//164 190//190
f 164//164 166//166 190//190
f 190//190 168//168 191//191
f 191//191 168//168 127//127
f 127//127 126//126 191//191
f 191//191 126//126 159//159
f 191//191 159//159 192//192
f 192//192 160//160 193//193
f 193//193 160//160 150//150
f 193//193 152//152 154//154
f 193//193 154//154 194//194
f 194//194 145//145 195//195
f 145//145 147//147 195//195
f 195//195 142//142 196//196
f 187//187 185//185 197//197
f 197//197 185//185 188//188
f 197//197 188//188 198//198
f 198//198 188//188 189//189
f 198//198 189//189 199//199
f 199//199 189//189 190//190
f 199//199 190//190 200//200
f 200//200 190//190 191//191
f 200//200 191//191 201//201
f 201//201 191//191 192//192
f 201//201 192//192 202//202
f 202//202 192//192 193//193
f 202//202 193//193 203//203
f 203//203 193//193 194//194
f 203//203 194//194 204//204
f 204//204 194//194 195//195
f 204//204 195//195 205//205
f 205//205 195//195 196//196
f 205//205 196//196 206//206
f 142//142 141//141 196//196
f 196//196 141//141 140//140
f 196//196 140//140 207//207
f 207//207 138//138 132//132
f 207//207 132//132 208//208
f 208//208 132//132 134//134
f 208//208 134//134 184//184
f 184//184 134//134 136//136
f 184//184 136//136 137//137
f 206//206 196//196 209//209
f 209//209 196//196 207//207
f 209//209 207//207 210//210
f 210//210 207//207 208//208
f 210//210 208//208 211//211
f 211//211 208//208 184//184
f 211//211 184//184 212//212
f 212//212 184//184 183//183
f 212//212 183//183 213//213
f 205//205 206//206 214//214
f 213//213 215//215 212//212
f 212//212 215//215 216//216
f 214//214 206//206 217//217
f 217//217 206//206 209//209
f 217//217 209//209 218//218
f 218//218 209//209 210//210
f 218//218 210//210 216//216
f 216//216 210//210 211//211
f 216//216 211//211 212//212
f 187//187 197//197 214//214
f 214//214 197//197 198//198
f 214//214 198//198 199//199
f 199//199 200//200 214//214
f 214//214 200//200 201//201
f 214//214 201//201 202//202
f 202//202 203//203 214//214
f 214//214 203//203 204//204
f 214//214 204//204 205//205
f 63//63 219//219 29//29
f 29//29 219//219 215//215
f 29//29 215//215 27//27
f 27//27 215//215 220//220
f 71//71 72//72 221//221
f 221//221 72//72 73//73
f 221//221 73//73 75//75
f 63//63 222//222 219//219
f 64//64 65//65 223//223
f 223//223 65//65 66//66
f 223//223 66//66 67//67
f 67//67 68//68 223//223
f 223//223 68//68 69//69
f 223//223 69//69 221//221
f 221//221 69//69 70//70
f 221//221 70//70 71//71
f 224//224 225//225 215//215
f 224//224 215//215 226//226
f 226//226 215//215 219//219
f 226//226 219//219 227//227
f 228//228 229//229 230//230
f 231//231 9//9 232//232
f 232//232 233//233 230//230
f 230//230 233//233 234//234
f 230//230 234//234 228//228
f 231//231 232//232 235//235
f 235//235 232//232 236//236
f 235//235 236//236 237//237
f 238//238 239//239 236//236
f 236//236 239//239 240//240
f 240//240 241//241 236//236
f 236//236 241//241 242//242
f 236//236 242//242 237//237
f 232//232 230//230 236//236
f 236//236 230//230 243//243
f 236//236 243//243 238//238
f 229//229 244//244 230//230
f 230//230 245//245 246//246
f 245//245 247//247 246//246
f 246//246 247//247 248//248
f 246//246 248//248 249//249
f 249//249 250//250 246//246
f 246//246 250//250 251//251
f 75//75 251//251 221//221
f 219//219 222//222 227//227
f 227//227 223//223 252//252
f 252//252 223//223 221//221
f 252//252 221//221 253//253
f 253//253 221//221 251//251
f 254//254 255//255 256//256
f 256//256 255//255 257//257
f 258//258 259//259 256//256
f 256//256 259//259 260//260
f 256//256 260//260 254//254
f 258//258 12//12 11//11
f 231//231 259//259 9//9
f 9//9 259//259 258//258
f 9//9 258//258 10//10
f 10//10 258//258 11//11
f 84//84 83//83 261//261
f 261//261 79//79 81//81
f 262//262 263//263 264//264
f 265//265 262//262 266//266
f 265//265 266//266 267//267
f 268//268 269//269 270//270
f 81//81 271//271 261//261
f 261//261 271//271 272//272
f 261//261 272//272 270//270
f 270//270 272//272 273//273
f 270//270 273//273 268//268
f 268//268 274//274 269//269
f 269//269 274//274 275//275
f 269//269 275//275 276//276
f 277//277 278//278 279//279
f 279//279 278//278 276//276
f 279//279 276//276 280//280
f 280//280 276//276 275//275
f 278//278 281//281 282//282
f 278//278 282//282 283//283
f 283//283 284//284 285//285
f 283//283 285//285 286//286
f 286//286 285//285 287//287
f 286//286 287//287 288//288
f 287//287 289//289 288//288
f 288//288 290//290 291//291
f 84//84 261//261 243//243
f 243//243 261//261 270//270
f 243//243 270//270 238//238
f 238//238 270//270 269//269
f 238//238 269//269 239//239
f 239//239 269//269 276//276
f 239//239 276//276 240//240
f 240//240 276//276 278//278
f 240//240 278//278 241//241
f 241//241 278//278 283//283
f 241//241 283//283 242//242
f 242//242 283//283 286//286
f 242//242 286//286 237//237
f 237//237 286//286 288//288
f 237//237 288//288 235//235
f 235//235 288//288 291//291
f 235//235 291//291 231//231
f 290//290 292//292 291//291
f 291//291 292//292 293//293
f 291//291 293//293 294//294
f 294//294 295//295 296//296
f 296//296 295//295 297//297
f 296//296 297//297 262//262
f 262//262 297//297 298//298
f 262//262 298//298 266//266
f 231//231 291//291 259//259
f 259//259 291//291 294//294
f 259//259 294//294 260//260
f 260//260 294//294 296//296
f 260//260 296//296 254//254
f 254//254 296//296 262//262
f 254//254 262//262 255//255
f 255//255 262//262 264//264
f 89//89 87//87 299//299
f 300//300 267//267 266//266
f 301//301 300//300 302//302
f 302//302 300//300 266//266
f 303//303 266//266 298//298
f 303//303 298//298 304//304
f 304//304 298//298 297//297
f 304//304 297//297 305//305
f 305//305 297//297 306//306
f 306//306 297//297 295//295
f 306//306 295//295 307//307
f 307//307 295//295 293//293
f 307//307 293//293 308//308
f 308//308 293//293 292//292
f 308//308 292//292 309//309
f 309//309 292//292 290//290
f 310//310 290//290 289//289
f 310//310 289//289 311//311
f 311//311 289//289 312//312
f 312//312 289//289 287//287
f 312//312 287//287 313//313
f 314//314 287//287 285//285
f 314//314 285//285 315//315
f 315//315 285//285 284//284
f 315//315 284//284 316//316
f 316//316 284//284 282//282
f 317//317 282//282 318//318
f 318//318 282//282 281//281
f 318//318 281//281 319//319
f 320//320 281//281 277//277
f 320//320 277//277 321//321
f 321//321 277//277 279//279
f 321//321 279//279 322//322
f 323//323 279//279 280//280
f 323//323 280//280 324//324
f 324//324 280//280 325//325
f 325//325 280//280 275//275
f 326//326 275//275 274//274
f 326//326 274//274 327//327
f 327//327 274//274 328//328
f 328//328 274//274 268//268
f 329//329 268//268 273//273
f 329//329 273//273 330//330
f 330//330 273//273 331//331
f 331//331 273//273 272//272
f 332//332 272//272 271//271
f 332//332 271//271 299//299
f 299//299 271//271 90//90
f 299//299 90//90 89//89
f 17//17 16//16 333//333
f 19//19 17//17 334//334
f 334//334 17//17 333//333
f 334//334 333//333 335//335
f 336//336 333//333 337//337
f 336//336 337//337 338//338
f 338//338 337//337 339//339
f 338//338 339//339 340//340
f 340//340 339//339 341//341
f 340//340 341//341 342//342
f 343//343 344//344 345//345
f 345//345 344//344 346//346
f 345//345 346//346 341//341
f 341//341 346//346 347//347
f 348//348 349//349 350//350
f 350//350 349//349 351//351
f 350//350 351//351 343//343
f 343//343 351//351 352//352
f 353//353 354//354 355//355
f 355//355 354//354 356//356
f 355//355 356//356 348//348
f 348//348 356//356 357//357
f 358//358 359//359 360//360
f 360//360 359//359 361//361
f 360//360 361//361 353//353
f 353//353 361//361 362//362
f 363//363 364//364 365//365
f 365//365 364//364 366//366
f 365//365 366//366 358//358
f 358//358 366//366 367//367
f 368//368 369//369 370//370
f 370//370 369//369 371//371
f 370//370 371//371 372//372
f 372//372 373//373 374//374
f 374//374 373//373 375//375
f 374//374 375//375 363//363
f 363//363 375//375 376//376
f 377//377 378//378 368//368
f 368//368 378//378 379//379
f 368//368 379//379 369//369
f 380//380 381//381 382//382
f 382//382 381//381 383//383
f 382//382 383//383 377//377
f 377//377 383//383 384//384
f 385//385 301//301 386//386
f 386//386 301//301 387//387
f 386//386 387//387 380//380
f 358//358 360//360 388//388
f 389//389 390//390 391//391
f 392//392 393//393 333//333
f 333//333 393//393 389//389
f 333//333 389//389 337//337
f 337//337 389//389 394//394
f 337//337 394//394 339//339
f 339//339 394//394 341//341
f 341//341 394//394 395//395
f 341//341 395//395 345//345
f 396//396 350//350 395//395
f 395//395 350//350 343//343
f 395//395 343//343 345//345
f 388//388 360//360 397//397
f 360//360 353//353 397//397
f 397//397 353//353 355//355
f 397//397 355//355 396//396
f 396//396 355//355 348//348
f 396//396 348//348 350//350
f 358//358 388//388 365//365
f 365//365 388//388 398//398
f 365//365 398//398 363//363
f 363//363 398//398 399//399
f 363//363 399//399 374//374
f 374//374 399//399 372//372
f 372//372 399//399 400//400
f 372//372 400//400 370//370
f 401//401 402//402 403//403
f 368//368 370//370 403//403
f 403//403 370//370 400//400
f 403//403 400//400 401//401
f 401//401 400//400 399//399
f 401//401 399//399 404//404
f 404//404 399//399 398//398
f 404//404 398//398 405//405
f 405//405 398//398 388//388
f 405//405 388//388 406//406
f 406//406 388//388 397//397
f 406//406 397//397 407//407
f 407//407 397//397 396//396
f 407//407 396//396 408//408
f 408//408 396//396 395//395
f 408//408 395//395 409//409
f 409//409 395//395 394//394
f 409//409 394//394 410//410
f 410//410 394//394 389//389
f 410//410 389//389 411//411
f 411//411 389//389 391//391
f 368//368 403//403 377//377
f 377//377 403//403 412//412
f 377//377 412//412 382//382
f 403//403 413//413 414//414
f 403//403 414//414 412//412
f 412//412 414//414 415//415
f 412//412 415//415 416//416
f 416//416 415//415 417//417
f 416//416 417//417 418//418
f 382//382 412//412 380//380
f 380//380 412//412 416//416
f 386//386 416//416 418//418
f 386//386 418//418 385//385
f 393//393 392//392 18//18
f 419//419 420//420 421//421
f 419//419 421//421 422//422
f 14//14 423//423 424//424
f 391//391 390//390 425//425
f 393//393 18//18 425//425
f 425//425 18//18 14//14
f 425//425 14//14 421//421
f 421//421 14//14 424//424
f 420//420 426//426 421//421
f 421//421 426//426 427//427
f 421//421 427//427 425//425
f 425//425 427//427 428//428
f 425//425 428//428 391//391
f 426//426 429//429 430//430
f 6//6 12//12 258//258
f 413//413 402//402 430//430
f 431//431 432//432 428//428
f 409//409 410//410 431//431
f 431//431 410//410 411//411
f 431//431 411//411 432//432
f 401//401 404//404 431//431
f 431//431 404//404 405//405
f 431//431 405//405 406//406
f 406//406 407//407 431//431
f 431//431 407//407 408//408
f 431//431 408//408 409//409
f 417//417 415//415 256//256
f 256//256 415//415 414//414
f 256//256 414//414 413//413
f 413//413 430//430 256//256
f 256//256 430//430 429//429
f 256//256 429//429 258//258
f 258//258 429//429 4//4
f 258//258 4//4 6//6
f 433//433 434//434 435//435
f 435//435 434//434 187//187
f 435//435 187//187 436//436
f 436//436 187//187 214//214
f 436//436 214//214 437//437
f 433//433 438//438 434//434
f 434//434 438//438 439//439
f 434//434 439//439 440//440
f 441//441 442//442 420//420
f 443//443 444//444 445//445
f 434//434 446//446 420//420
f 420//420 446//446 447//447
f 420//420 447//447 441//441
f 442//442 448//448 420//420
f 420//420 448//448 449//449
f 420//420 449//449 426//426
f 426//426 449//449 450//450
f 426//426 450//450 429//429
f 429//429 450//450 451//451
f 429//429 451//451 4//4
f 216//216 215//215 225//225
f 214//214 217//217 437//437
f 437//437 217//217 218//218
f 437//437 218//218 452//452
f 452//452 218//218 216//216
f 452//452 216//216 453//453
f 453//453 216//216 225//225
f 401//401 431//431 402//402
f 402//402 431//431 428//428
f 402//402 428//428 430//430
f 430//430 428//428 427//427
f 430//430 427//427 426//426
f 454//454 455//455 456//456
f 456//456 455//455 457//457
f 457//457 458//458 456//456
f 456//456 458//458 459//459
f 456//456 459//459 460//460
f 460//460 459//459 461//461
f 460//460 461//461 462//462
f 463//463 464//464 459//459
f 463//463 459//459 465//465
f 465//465 459//459 458//458
f 461//461 466//466 467//467
f 461//461 467//467 462//462
f 468//468 469//469 470//470
f 470//470 469//469 460//460
f 470//470 460//460 471//471
f 471//471 460//460 462//462
