# Converted from the official Rethink Robotics Baxter DAE
v 0.04082489 -0.09349995 0.1247025
v 0.04151725 0.09349995 0.1214101
v 0.04151725 -0.09349995 0.1214101
v 0.04347693 0.09349995 0.1186753
v 0.04347693 -0.09349995 0.1186753
v 0.04637223 0.09349995 0.1169614
v 0.04637223 -0.09349995 0.1169614
v 0.05441665 0.09349995 0.1201573
v 0.05441665 -0.09349995 0.1201573
v 0.05469346 0.09349995 0.1169944
v 0.05469346 -0.09349995 0.1169944
v 0.04943573 0.09349995 0.1197215
v 0.04943573 -0.09349995 0.1197215
v 0.04399991 0.02949988 0.1747356
v 0.04399991 0.04499989 0.1747356
v 0.04327487 0.04499989 0.1783807
v 0.04327487 0.02949988 0.1783807
v 0.04121017 0.04499989 0.1814708
v 0.04121017 0.02949988 0.1814708
v 0.03812003 0.04499989 0.1835356
v 0.03812003 0.02949988 0.1835356
v 0.04082489 0.09126961 0.1345037
v 0.04082489 0.04723036 0.1700677
v 0.04399991 0.09126961 0.1345037
v 0.04399991 0.04723036 0.1700677
v 0.04399991 -0.09126961 0.1345037
v 0.04082489 -0.09126961 0.1345037
v 0.04082489 -0.09291374 0.1324224
v 0.04399991 -0.09291374 0.1324224
v 0.04082489 -0.09349995 0.1298357
v 0.04399991 -0.09349995 0.1298357
v 0.04399991 -0.04723036 0.1700677
v 0.04082489 -0.04723036 0.1700677
v 0.04399991 0.02869606 0.1717356
v 0.04399991 0.02649992 0.1695395
v 0.04399991 0.04558616 0.1721489
v 0.04399991 -0.02949988 0.1747356
v 0.04399991 -0.04499989 0.1747356
v 0.04399991 -0.02869606 0.1717356
v 0.04399991 -0.04558616 0.1721489
v 0.04399991 0.09349995 0.1298357
v 0.04399991 0.09349995 0.1247025
v 0.04399991 0.02349996 0.1687356
v 0.04399991 -0.09349995 0.1247025
v 0.04399991 -0.02649992 0.1695395
v 0.04399991 -0.02349996 0.1687356
v 0.0444234 -0.09349995 0.1226888
v 0.04562205 -0.09349995 0.1210162
v 0.04971241 -0.09349995 0.1165586
v 0.04082489 -0.02869606 0.1717356
v 0.04082489 -0.02649992 0.1695395
v 0.04082489 -0.02349996 0.1687356
v 0.04082489 0.09349995 0.1247025
v 0.04082489 0.02869606 0.1717356
v 0.04082489 0.09349995 0.1298357
v 0.04082489 0.02649992 0.1695395
v 0.04082489 0.02349996 0.1687356
v 0.04327487 -0.02949988 0.1783807
v 0.04327487 -0.04499989 0.1783807
v 0.04121017 -0.02949988 0.1814708
v 0.04121017 -0.04499989 0.1814708
v 0.03812003 -0.02949988 0.1835356
v 0.03812003 -0.04499989 0.1835356
v 0.04597491 -0.09349995 0.1207213
v 0.04438966 -0.135 0.1227673
v 0.04438966 -0.09349995 0.1227673
v 0.04403966 -0.135 0.1253316
v 0.04403966 -0.09349995 0.1253316
v 0.04501885 -0.135 0.1277276
v 0.04501885 -0.09349995 0.1277276
v 0.04706478 -0.135 0.1293128
v 0.04706478 -0.09349995 0.1293128
v 0.04962921 -0.135 0.1296628
v 0.04962921 -0.09349995 0.1296628
v 0.04837071 -0.09349995 0.1197423
v 0.04597491 -0.135 0.1207213
v 0.04706478 0.09349995 0.1293128
v 0.04962921 0.09349995 0.1296628
v 0.05202502 -0.09349995 0.1286836
v 0.05202502 0.09349995 0.1286836
v 0.05361026 -0.09349995 0.1266376
v 0.05361026 0.09349995 0.1266376
v 0.0539602 -0.09349995 0.1240733
v 0.0539602 0.09349995 0.1240733
v 0.05298101 -0.09349995 0.1216775
v 0.05298101 0.09349995 0.1216775
v 0.05093514 -0.09349995 0.1200922
v 0.05093514 0.09349995 0.1200922
vn -0.7250282 -0.6845301 -0.0754112
vn -0.6847133 0.663564 -0.3012482
vn -0.6847133 -0.663564 -0.3012482
vn -0.5053865 0.663564 -0.5515305
vn -0.5053865 -0.663564 -0.5515305
vn -0.2404553 0.663564 -0.7083652
vn -0.2404553 -0.663564 -0.7083652
vn 0.5248268 0.5773492 0.6254768
vn 0.5248268 -0.5773492 0.6254463
vn 0.6254768 0.5773492 -0.5248268
vn 0.6254463 -0.5773492 -0.5248268
vn -0.03698843 0.9053316 0.423017
vn -0.03698843 -0.9053316 0.423017
vn 0.7495957 -0.6425977 0.1584215
vn 0.7457198 0.6500138 0.1461836
vn 0.6893826 0.6657003 0.2855312
vn 0.6893826 -0.6657003 0.2855312
vn 0.5276345 0.6657003 0.5276345
vn 0.5276345 -0.6657003 0.5276345
vn 0.2855312 0.6657003 0.6893826
vn 0.2855312 -0.6657003 0.6893826
vn -0.6828822 0.519303 0.5137486
vn -0.7329936 0.4835352 0.4783776
vn 0.6828822 0.519303 0.5137486
vn 0.7329936 0.4835352 0.4783776
vn 0.6828822 -0.519303 0.5137486
vn -0.6828822 -0.519303 0.5137486
vn -0.6605731 -0.6773889 0.3236488
vn 0.6605731 -0.6773889 0.3236488
vn -0.6829127 -0.7259438 0.08120971
vn 0.6829127 -0.7259438 0.08120971
vn 0.7329936 -0.4835352 0.4783776
vn -0.7329936 -0.4835352 0.4783776
vn 0.7702566 -0.552263 0.3188269
vn 0.7702566 -0.3188269 0.552263
vn 0.7603992 0.5859859 0.2799768
vn 0.7495957 0.6425977 0.1584215
vn 0.7457198 -0.6500138 0.1461836
vn 0.7702566 0.552263 0.3188269
vn 0.7603992 -0.5859859 0.2799768
vn 0.6829127 0.7259438 0.08120971
vn 0.4246345 0.9053316 0
vn 0.7376934 -0.08810693 0.669332
vn 0.4246345 -0.9053316 0
vn 0.7702566 0.3188269 0.552263
vn 0.7376934 0.08810693 0.669332
vn 0 -1 0
vn 0 -1 0
vn -0.01193273 -0.6845301 -0.728843
vn -0.7702566 0.552263 0.3188269
vn -0.7702566 0.3188269 0.552263
vn -0.7376934 0.08810693 0.669332
vn -0.7250282 0.6845301 -0.0754112
vn -0.7702566 -0.552263 0.3188269
vn -0.6829127 0.7259438 0.08120971
vn -0.7702566 -0.3188269 0.552263
vn -0.7376934 -0.08810693 0.669332
vn 0.6893826 0.6657003 0.2855312
vn 0.6893826 -0.6657003 0.2855312
vn 0.5276345 0.6657003 0.5276345
vn 0.5276345 -0.6657003 0.5276345
vn 0.2855312 0.6657003 0.6893826
vn 0.2855312 -0.6657003 0.6893826
vn -0.604999 0 -0.7961974
vn -0.9220557 0 -0.3870357
vn -0.9220557 0 -0.3870357
vn -0.9920347 0 0.1258278
vn -0.9920347 0 0.1258278
vn -0.7961974 0 0.604999
vn -0.7961974 0 0.604999
vn -0.3870357 0 0.9220557
vn -0.3870357 0 0.9220557
vn 0.1258278 0 0.9920347
vn 0.1258278 0 0.9920347
vn -0.1258278 0 -0.9920347
vn -0.604999 0 -0.7961974
vn -0.3870357 0 0.9220557
vn 0.1258278 0 0.9920347
vn 0.604999 0 0.7961974
vn 0.604999 0 0.7961974
vn 0.9220557 0 0.3870357
vn 0.9220557 0 0.3870357
vn 0.9920347 0 -0.1258278
vn 0.9920347 0 -0.1258278
vn 0.7961974 0 -0.604999
vn 0.7961974 0 -0.604999
vn 0.3870357 0 -0.9220557
vn 0.3870357 0 -0.9220557
f 1//1 2//2 3//3
f 3//3 4//4 5//5
f 5//5 6//6 7//7
f 8//8 9//9 10//10
f 10//10 9//9 11//11
f 12//12 13//13 8//8
f 8//8 13//13 9//9
f 14//14 15//15 16//16
f 14//14 16//16 17//17
f 17//17 16//16 18//18
f 17//17 18//18 19//19
f 19//19 18//18 20//20
f 19//19 20//20 21//21
f 22//22 23//23 24//24
f 24//24 23//23 25//25
f 26//26 27//27 28//28
f 26//26 28//28 29//29
f 29//29 28//28 30//30
f 29//29 30//30 31//31
f 26//26 32//32 27//27
f 27//27 32//32 33//33
f 24//24 34//34 35//35
f 15//15 14//14 36//36
f 36//36 14//14 34//34
f 36//36 34//34 25//25
f 25//25 34//34 24//24
f 37//37 38//38 39//39
f 39//39 38//38 40//40
f 39//39 40//40 32//32
f 41//41 24//24 35//35
f 41//41 35//35 42//42
f 42//42 35//35 43//43
f 42//42 43//43 44//44
f 32//32 26//26 39//39
f 39//39 26//26 31//31
f 39//39 31//31 45//45
f 45//45 31//31 44//44
f 45//45 44//44 46//46
f 46//46 44//44 43//43
f 44//44 30//30 1//1
f 44//44 1//1 47//47
f 47//47 1//1 3//3
f 47//47 3//3 48//48
f 48//48 3//3 5//5
f 9//9 49//49 11//11
f 27//27 50//50 51//51
f 33//33 50//50 27//27
f 28//28 27//27 30//30
f 30//30 27//27 51//51
f 30//30 51//51 1//1
f 1//1 51//51 52//52
f 1//1 52//52 53//53
f 23//23 22//22 54//54
f 54//54 22//22 55//55
f 54//54 55//55 56//56
f 56//56 55//55 53//53
f 56//56 53//53 57//57
f 57//57 53//53 52//52
f 38//38 37//37 58//58
f 38//38 58//58 59//59
f 59//59 58//58 60//60
f 59//59 60//60 61//61
f 61//61 60//60 62//62
f 61//61 62//62 63//63
f 64//64 65//65 66//66
f 66//66 67//67 68//68
f 68//68 69//69 70//70
f 70//70 71//71 72//72
f 72//72 73//73 74//74
f 75//75 76//76 64//64
f 77//77 72//72 74//74
f 77//77 74//74 78//78
f 78//78 74//74 79//79
f 78//78 79//79 80//80
f 80//80 79//79 81//81
f 80//80 81//81 82//82
f 82//82 81//81 83//83
f 82//82 83//83 84//84
f 84//84 83//83 85//85
f 84//84 85//85 86//86
f 86//86 85//85 87//87
f 86//86 87//87 88//88
